<svg xmlns="http://www.w3.org/2000/svg" viewBox="0 0 920 620" role="img" aria-labelledby="title desc">
  <title id="title">Common Ground Standard system visual</title>
  <desc id="desc">Line-art civic infrastructure, governance table, audit log, and network map.</desc>
  <defs>
    <linearGradient id="sky" x1="0" x2="0" y1="0" y2="1">
      <stop offset="0" stop-color="#eaf6fa" />
      <stop offset="1" stop-color="#ffffff" />
    </linearGradient>
    <linearGradient id="water" x1="0" x2="1">
      <stop offset="0" stop-color="#d7eef4" />
      <stop offset="1" stop-color="#b8dce5" />
    </linearGradient>
  </defs>
  <rect width="920" height="620" fill="#fff" />
  <path d="M0 0h920v190c-88-24-157-26-236-10-109 22-180 76-302 74C234 252 132 166 0 188Z" fill="url(#sky)" />
  <g fill="none" stroke="#7fa4ad" stroke-width="2" opacity=".55">
    <path d="M40 530c126-62 246-92 360-90 154 2 277 66 480 4" />
    <path d="M48 480c130-48 243-68 354-64 140 5 246 53 420 22" />
  </g>
  <g fill="#f7fbfc" stroke="#8fb1b8" stroke-width="2">
    <path d="M150 184h90v160h-90z" />
    <path d="M246 146h130v198H246z" />
    <path d="M384 220h142v124H384z" />
    <path d="M300 142a44 44 0 0 1 88 0" />
  </g>
  <g stroke="#a9c0c6" stroke-width="2">
    <path d="M170 214h20M210 214h20M270 182h24M318 182h24M270 226h24M318 226h24M270 270h24M318 270h24M412 254h24M462 254h24M412 296h24M462 296h24" />
  </g>
  <g fill="#9ab8a2" opacity=".75">
    <circle cx="118" cy="352" r="22" /><rect x="115" y="370" width="6" height="50" />
    <circle cx="575" cy="334" r="22" /><rect x="572" y="352" width="6" height="54" />
    <circle cx="650" cy="320" r="18" /><rect x="647" y="336" width="6" height="48" />
  </g>
  <g fill="none" stroke="#4b6870" stroke-width="3" stroke-linecap="round" stroke-linejoin="round">
    <path d="M720 96 660 386h122Z" />
    <path d="M720 96v290M684 190h72M672 254h96M692 320h56M720 96l-34 94 60 64-70 66M720 96l34 94-60 64 70 66" />
    <path d="M780 142c42 4 82 20 120 48M785 206c42 4 78 16 110 34" opacity=".55" />
  </g>
  <g transform="translate(526 388)">
    <ellipse cx="0" cy="0" rx="104" ry="40" fill="#eadfcf" stroke="#9aa6a9" stroke-width="2" />
    <g fill="#24444d">
      <circle cx="-70" cy="-16" r="11" /><circle cx="-34" cy="-30" r="11" /><circle cx="12" cy="-30" r="11" />
      <circle cx="48" cy="-12" r="11" /><circle cx="-10" cy="22" r="11" /><circle cx="74" cy="16" r="11" />
    </g>
    <g stroke="#24444d" stroke-width="3" stroke-linecap="round">
      <path d="M-70-4v36M-34-18v42M12-18v42M48 0v34M-10 34v36M74 28v36" />
    </g>
  </g>
  <g transform="translate(730 380) rotate(-13)">
    <rect x="0" y="0" width="132" height="150" fill="#fff" stroke="#8fb1b8" stroke-width="2" />
    <path d="M18 28h74M18 55h92M18 78h88M18 101h74M18 124h84" stroke="#b4cbd0" stroke-width="2" />
    <path d="M18 54l8 8 15-18M18 78l8 8 15-18M18 102l8 8 15-18" fill="none" stroke="#006b7d" stroke-width="3" />
  </g>
  <g transform="translate(208 418)" fill="none" stroke="#006b7d" stroke-width="2.6" stroke-linecap="round" stroke-linejoin="round">
    <path d="M0 70 64 24l70 42 76-58 86 72" />
    <circle cx="0" cy="70" r="9" /><circle cx="64" cy="24" r="9" /><circle cx="134" cy="66" r="9" /><circle cx="210" cy="8" r="9" /><circle cx="296" cy="80" r="9" />
    <rect x="42" y="96" width="42" height="42" /><rect x="112" y="118" width="34" height="34" /><rect x="230" y="104" width="44" height="44" />
  </g>
  <g transform="translate(760 458)">
    <path d="M80 0c32 0 58 26 58 58v26H22V58C22 26 48 0 80 0Z" fill="#f6f3ea" stroke="#a9a09a" stroke-width="2" />
    <path d="M80 84v74" stroke="#35545c" stroke-width="9" stroke-linecap="round" />
    <rect x="50" y="150" width="70" height="82" fill="#f9fbfb" stroke="#8fb1b8" stroke-width="2" />
    <path d="M64 174h42M64 194h32" stroke="#adc5ca" stroke-width="2" />
  </g>
</svg>